<svg version="1.1" id="Layer_1" xmlns="http://www.w3.org/2000/svg" xmlns:xlink="http://www.w3.org/1999/xlink" x="0px" y="0px" width="100%" viewBox="0 0 784 1024" enable-background="new 0 0 784 1024" xml:space="preserve">
<path fill="#000000" opacity="1.000000" stroke="none" d="
M664.163330,546.127197 
	C667.050903,578.877991 663.923584,611.131531 663.451660,643.405945 
	C663.320068,652.403931 663.281189,661.403320 663.119629,670.400635 
	C663.069641,673.181152 663.419189,676.260498 659.152405,676.560913 
	C657.182617,676.699585 657.287415,678.576904 657.232117,680.087158 
	C655.198853,735.654541 641.975830,788.655090 620.599670,839.785889 
	C620.214722,840.706665 619.854614,841.639954 619.538086,842.585876 
	C619.439392,842.880737 619.522766,843.236511 619.522766,843.501892 
	C620.154419,844.654297 621.254150,844.618164 622.192017,844.521362 
	C626.224304,844.105042 627.681519,846.135315 628.297363,849.885925 
	C628.944946,853.829468 627.078308,855.090698 623.797058,856.171997 
	C612.584045,859.867188 612.728333,859.950623 614.053955,871.473938 
	C616.182129,889.973633 618.151550,908.491577 620.167908,927.004028 
	C620.422913,929.345215 620.407349,931.530334 618.497681,933.472473 
	C605.415588,946.777649 594.128784,961.748962 580.425476,974.486267 
	C573.657593,980.777100 566.264404,986.117981 557.748962,989.775146 
	C545.265442,995.136658 532.786072,994.472534 520.310364,989.631287 
	C517.920715,988.704041 516.599670,987.079346 515.757019,984.729004 
	C507.726410,962.330322 503.273865,939.224121 501.617493,915.511414 
	C500.943085,905.856567 500.718201,896.208252 500.923431,886.549011 
	C500.995483,883.158997 499.543365,881.804199 496.352600,881.351868 
	C480.209442,879.063293 464.120361,876.972168 447.695740,877.121094 
	C430.232727,877.279541 413.350250,873.515747 397.436951,865.837708 
	C390.183960,862.338074 382.023163,861.818970 374.280334,859.936462 
	C338.390167,851.210876 302.484802,842.546448 266.555023,833.985474 
	C257.866089,831.915283 249.198654,829.621582 240.162918,828.540283 
	C238.517960,832.085205 239.549377,835.656799 238.935242,839.041321 
	C236.978302,849.825745 232.888016,859.768860 227.777100,869.377014 
	C224.570267,875.405640 221.230377,881.390869 218.477203,887.628113 
	C210.435440,905.846680 213.166946,918.975708 229.141556,930.680725 
	C236.573288,936.126160 239.235596,941.839539 238.440811,950.572754 
	C237.771912,957.922363 238.286469,957.918152 230.961212,959.488281 
	C218.041016,962.257629 204.958786,963.287292 191.774826,963.301880 
	C173.609619,963.322021 155.444427,963.334595 137.279221,963.354309 
	C134.954742,963.356873 132.759949,963.540588 131.151978,961.079529 
	C113.322296,933.789185 103.771347,904.133118 106.053040,871.312683 
	C107.974396,843.675354 117.090790,818.013245 128.697403,793.112976 
	C143.140076,762.128357 160.847107,732.853699 176.156830,702.325562 
	C188.205154,678.300842 198.613617,653.696350 204.180542,627.199524 
	C206.846222,614.511841 205.264801,601.943848 204.493073,589.387268 
	C203.442230,572.289307 201.731369,555.102478 196.609741,538.697144 
	C183.895386,497.971436 177.140549,455.700073 163.911774,415.093994 
	C159.812378,402.510803 159.584869,388.886780 157.714890,375.721497 
	C153.053604,342.904724 148.303482,310.107361 135.112045,279.311096 
	C131.982025,272.003876 128.287445,264.938477 124.638412,257.314423 
	C130.616745,254.397736 136.788055,253.138168 142.890045,251.739456 
	C163.223083,247.078690 183.897812,247.472778 204.558777,247.689438 
	C210.965729,247.756638 211.430527,247.203613 210.547501,240.850220 
	C206.517746,211.856400 202.569901,182.853592 199.237595,153.767181 
	C198.759094,149.590485 200.215454,148.367050 203.828781,148.082077 
	C213.283203,147.336380 222.723938,146.384155 232.188156,145.812790 
	C235.667145,145.602783 236.939194,144.246918 236.695007,140.890427 
	C236.296539,135.412704 236.126541,129.918228 235.717239,124.441490 
	C235.436081,120.679695 236.791016,119.391235 240.656448,119.985260 
	C274.521515,125.189476 308.404388,130.278076 342.283661,135.389954 
	C347.384338,136.159576 352.513611,136.757919 357.592743,137.646469 
	C361.953766,138.409409 364.160797,137.118225 365.298370,132.479218 
	C371.598022,106.788719 378.208313,81.174309 384.730133,55.538414 
	C386.001465,50.541050 387.466034,45.590061 388.621155,40.567020 
	C389.260590,37.786407 390.789734,36.819908 393.524567,36.698048 
	C414.981903,35.741959 436.435669,34.705124 457.889069,33.662239 
	C466.203094,33.258083 474.527954,32.947163 482.818146,32.243553 
	C486.263428,31.951145 488.054138,33.079098 489.262878,36.202286 
	C493.488525,47.120880 493.255402,58.369900 491.844330,69.673965 
	C489.842529,85.710625 485.495361,101.319992 482.933685,117.255760 
	C481.586823,125.634285 480.356537,134.031158 482.221283,142.546143 
	C484.220184,151.673660 492.232025,158.748932 501.550537,159.474808 
	C503.645325,159.637985 504.881104,158.964920 504.814453,156.839783 
	C504.702301,153.264618 506.361359,152.197678 509.749237,152.641678 
	C530.670715,155.383698 551.226990,151.173874 571.905518,149.274643 
	C585.449890,148.030655 598.829590,148.567184 611.977783,152.556290 
	C615.412231,153.598312 616.975403,155.466721 617.026428,158.912292 
	C617.085693,162.910934 617.417236,166.917664 617.242432,170.903870 
	C617.098083,174.195236 618.537659,175.623535 621.519470,176.550339 
	C628.354065,178.674667 635.073730,181.165894 641.885925,183.366379 
	C645.125000,184.412643 646.369446,185.948532 645.256348,189.567307 
	C637.082764,216.140213 629.570618,242.933075 620.607788,269.233276 
	C618.717041,274.781494 617.276001,279.884644 617.138306,285.584442 
	C617.071411,288.350800 617.700012,290.542725 620.485229,291.597809 
	C625.500671,293.497833 625.698059,297.433899 624.992371,301.872650 
	C623.804626,309.343292 621.606079,316.450378 617.775024,323.011047 
	C617.113464,324.144043 616.311584,325.249847 616.765259,327.279663 
	C623.719421,327.597168 629.376770,322.939484 636.112366,321.809937 
	C638.773926,327.067444 638.332336,332.681274 638.930969,337.992035 
	C641.278198,358.814209 643.208191,379.683136 645.350708,400.528778 
	C646.609009,412.772217 648.131531,424.991150 649.184753,437.251190 
	C649.450867,440.348572 652.656738,441.265778 652.930420,444.049561 
	C653.255737,447.358795 653.630188,450.663239 653.991089,453.968903 
	C656.426880,476.279846 658.854431,498.591705 661.307190,520.900818 
	C662.215576,529.162842 663.184570,537.418152 664.163330,546.127197 
M367.665192,270.992615 
	C368.805450,273.439636 371.093109,272.809509 372.929962,272.663177 
	C376.235535,272.399933 379.515717,271.760376 382.791626,271.192078 
	C406.572601,267.066559 430.427338,263.459778 454.521912,261.787476 
	C463.343231,261.175201 463.672699,261.506409 465.261017,253.201706 
	C466.159210,248.505356 468.315918,247.164536 472.749603,247.735382 
	C481.330017,248.840134 489.934509,249.779602 498.545624,250.616714 
	C504.494812,251.195068 504.888428,250.757263 504.895538,244.907852 
	C504.922852,222.407959 504.697601,199.904053 505.091705,177.410858 
	C505.191620,171.708191 503.107910,170.032730 497.986145,169.238678 
	C484.260864,167.110748 475.296112,159.373108 472.309113,145.524353 
	C471.044189,139.659851 470.703949,133.721054 471.252411,127.660988 
	C472.621552,112.534149 476.566986,97.892914 479.162323,83.002014 
	C481.123749,71.748253 483.874298,60.557495 482.034149,48.876232 
	C481.282349,44.103722 479.309967,42.910728 474.813629,43.149704 
	C452.200470,44.351574 429.576447,45.358345 406.951874,46.331814 
	C397.676666,46.730896 397.582764,46.723721 395.329285,55.653984 
	C387.917694,85.025696 380.340240,114.356789 373.177643,143.788940 
	C371.923218,148.943588 369.588318,149.969528 364.884674,149.248199 
	C332.664825,144.307053 300.426056,139.488846 268.187195,134.672409 
	C261.193542,133.627579 254.174805,132.750717 246.746964,131.739182 
	C246.934158,135.015915 247.302902,137.499420 247.163849,139.954163 
	C246.947891,143.766266 248.677994,144.902496 252.246353,144.725922 
	C256.568695,144.512039 260.915192,144.552719 265.242462,144.716034 
	C277.845703,145.191666 290.041656,147.212555 301.193634,153.722733 
	C305.545166,156.263016 308.115021,159.613937 309.206787,164.515396 
	C313.003021,181.558594 316.648407,198.629303 319.299988,215.892776 
	C319.836914,219.388412 320.987946,221.423874 324.992554,222.084290 
	C338.806580,224.362381 352.363800,227.781128 365.602966,232.419556 
	C368.575653,233.461044 370.515503,234.657837 370.159973,238.361099 
	C369.142303,248.961090 368.397278,259.587280 367.665192,270.992615 
M529.418884,565.606812 
	C526.923218,566.421448 526.562622,568.491394 526.182434,570.724854 
	C524.136414,582.743591 523.465149,594.865784 523.354858,607.027588 
	C523.281738,615.085938 523.372437,615.346252 531.185547,614.760132 
	C535.646606,614.425415 538.300781,615.996643 540.527527,619.711853 
	C543.810181,625.188843 546.467163,630.893921 548.198486,637.012390 
	C553.552856,655.935425 552.581177,675.252136 551.694275,694.564880 
	C551.457520,699.720459 551.453796,704.886353 551.297119,710.046204 
	C551.224182,712.450684 551.933228,713.761536 554.719177,713.633911 
	C561.037842,713.344604 561.042603,713.442627 561.062256,719.766907 
	C561.065918,720.933533 561.044556,722.100647 561.073608,723.266602 
	C561.220215,729.140442 561.896301,729.644653 567.649353,727.739197 
	C577.146484,724.593689 586.810791,722.113037 596.627197,720.207581 
	C602.307373,719.104980 602.902832,719.722839 602.662659,725.658875 
	C602.460632,730.650757 602.289490,735.659790 602.483337,740.646545 
	C602.626160,744.319336 601.657043,747.452026 599.823181,750.567871 
	C582.498901,780.002197 565.237488,809.473450 547.982361,838.948364 
	C547.095276,840.463684 545.705750,841.826599 546.031677,844.236694 
	C553.802979,845.062744 561.767578,843.522095 569.362793,844.806030 
	C583.759888,847.239990 592.241882,840.067627 598.954590,828.920532 
	C599.126282,828.635376 599.324280,828.365845 599.513489,828.091492 
	C612.944946,808.611023 618.102905,786.205872 624.141785,763.737122 
	C629.058838,745.442078 625.779053,728.978088 621.126648,711.927551 
	C619.330872,705.346008 617.917847,698.681641 617.152893,691.874756 
	C615.746826,679.362915 622.195312,669.878967 634.411133,666.938110 
	C636.828674,666.356140 639.324036,665.830139 641.791870,665.789551 
	C645.132324,665.734558 646.091248,664.188293 645.984253,661.103638 
	C645.753235,654.442505 645.851074,647.769226 645.581726,641.110352 
	C645.238953,632.634521 645.890381,623.880615 643.981018,615.747070 
	C635.621277,580.135803 625.963623,544.882568 619.760925,508.713806 
	C614.664673,478.996765 609.703979,449.339783 607.866638,419.258606 
	C606.394470,395.155182 605.747498,371.002441 605.740784,346.841858 
	C605.740295,345.181519 606.567688,343.162659 604.668518,341.875793 
	C602.881042,342.068024 602.068542,343.436005 601.073975,344.511719 
	C595.305115,350.751221 589.451721,356.935822 584.564270,363.906677 
	C582.527222,366.812134 580.415955,367.509277 576.955078,366.522095 
	C568.464661,364.100311 559.790894,362.580566 550.924805,362.125793 
	C537.249573,361.424225 537.574341,361.299469 538.631592,375.008026 
	C539.939636,391.967957 539.907227,408.969238 537.509827,425.861176 
	C536.467346,433.206390 534.912170,440.478790 533.613953,447.650879 
	C535.462585,449.203735 537.374878,448.668945 539.140381,448.683838 
	C546.806213,448.748596 554.472961,448.690033 562.139099,448.731476 
	C563.925171,448.741119 566.213318,448.479919 566.228455,451.156433 
	C566.251648,455.262146 568.891907,455.588470 571.944275,455.589264 
	C581.943848,455.591919 591.951782,455.847046 601.939575,455.507721 
	C607.007812,455.335541 608.578308,456.952301 608.377014,462.036377 
	C607.401794,486.668396 606.756470,511.313477 605.967163,535.953003 
	C605.801941,541.111816 605.546143,546.268127 605.290222,551.423462 
	C605.001526,557.240967 601.270874,562.752075 597.535339,562.574097 
	C575.010254,561.500854 552.589417,562.721252 529.418884,565.606812 
M259.251221,519.528625 
	C261.357697,533.853271 262.258484,548.287964 263.343994,562.712219 
	C264.672668,580.367737 264.166351,598.001648 263.263336,615.639709 
	C262.531342,629.938599 261.666107,644.230652 260.852325,658.525330 
	C259.629883,679.998840 259.222229,701.476074 261.675018,722.883484 
	C262.078064,726.401123 261.494141,730.417358 264.258179,733.923340 
	C265.165283,732.225708 265.924500,730.946167 266.554108,729.605774 
	C281.582581,697.611450 295.208221,665.066711 304.750214,630.955872 
	C305.815369,627.148071 307.462769,625.401611 311.631409,625.568787 
	C315.930878,625.741333 320.260010,624.964783 324.583313,624.826233 
	C327.525299,624.731995 328.474731,623.416199 328.811401,620.552246 
	C330.208801,608.665283 329.363861,596.963135 326.470490,585.393677 
	C325.787994,582.664612 325.003601,580.246460 328.696625,578.991638 
	C330.671509,578.320618 330.275482,576.414917 330.182739,574.696411 
	C329.958527,570.541260 329.403320,566.316284 329.884857,562.225708 
	C332.216583,542.419983 334.711914,522.630920 337.421082,502.873199 
	C339.034027,491.110077 339.354950,490.992432 329.035431,484.381104 
	C325.251526,481.956879 323.278564,479.290680 323.779724,474.649170 
	C324.171021,471.025116 323.771118,467.322235 323.878815,463.658997 
	C323.971741,460.497009 322.613586,459.376312 319.442047,459.144836 
	C302.232513,457.888702 290.654419,448.975769 284.592438,432.863464 
	C280.618286,422.300507 279.643768,411.194092 278.664734,400.079376 
	C277.454865,386.344269 278.372894,372.117615 273.571716,359.121216 
	C270.197144,349.986603 273.942688,345.255890 279.924774,340.284058 
	C280.985107,339.402771 282.045959,338.429504 283.472809,339.095612 
	C292.600281,343.356659 303.203827,344.563507 310.687561,352.240784 
	C311.708649,353.288330 313.042419,354.934387 314.468170,353.632294 
	C317.667755,350.710114 322.015045,348.561279 321.809967,343.076569 
	C321.237457,327.768311 320.221649,312.494080 318.900085,297.233826 
	C318.676453,294.651245 317.576141,293.571136 315.229492,292.700714 
	C308.619537,290.249115 302.004120,288.796173 294.821136,288.920776 
	C285.992798,289.073944 277.118652,287.900665 268.874908,284.523071 
	C264.271637,282.637054 262.414001,284.247833 260.399261,288.117523 
	C251.451782,305.303131 248.116989,323.883331 246.330612,342.869812 
	C244.547409,361.822754 245.358856,380.831055 245.349380,399.818115 
	C245.346573,405.462891 245.126785,411.099762 245.916626,416.768097 
	C248.232910,433.391418 250.194870,450.063843 252.348007,466.710236 
	C254.587326,484.023071 256.887817,501.328033 259.251221,519.528625 
M116.771996,869.140137 
	C114.213791,898.176086 121.337692,924.879333 136.086090,949.782959 
	C137.599457,952.338379 139.631775,952.852295 142.335800,952.838013 
	C162.158142,952.733521 181.983871,952.908264 201.802231,952.595093 
	C209.092834,952.479980 216.371780,951.335144 223.643524,950.544861 
	C225.249481,950.370239 227.205246,950.074524 227.562149,948.055969 
	C227.931412,945.967346 228.353394,943.686707 226.398331,942.001648 
	C225.137939,940.915344 223.779419,939.943909 222.493668,938.886047 
	C203.462601,923.225952 197.516953,908.026123 208.501694,884.525696 
	C212.870575,875.179138 217.948349,866.166138 222.427994,856.868591 
	C226.507263,848.401855 229.267990,839.554688 228.816284,829.943909 
	C228.687210,827.197510 227.848969,825.620728 224.920715,825.201355 
	C220.478958,824.565247 216.106094,823.311890 211.651993,822.935242 
	C206.825470,822.526978 205.220337,819.880127 204.842361,815.557861 
	C203.915161,804.955444 202.265778,794.381958 201.956787,783.766296 
	C201.137939,755.632690 201.677628,727.508423 203.368042,699.392761 
	C204.069412,687.727478 203.484451,675.984802 203.484451,666.402161 
	C199.915359,675.518738 195.198090,686.681885 189.938431,697.615051 
	C175.492599,727.643250 158.241852,756.197632 143.511246,786.074219 
	C130.647507,812.164490 119.618843,838.854736 116.771996,869.140137 
M283.154846,782.363037 
	C291.788788,793.818726 300.886322,804.871887 311.512360,814.567322 
	C325.912689,827.706665 341.763031,838.100037 361.747894,840.293823 
	C366.932861,840.862915 372.221436,841.490845 377.568237,839.235107 
	C377.061859,838.027344 376.856964,837.220093 376.426758,836.559387 
	C366.316650,821.030212 360.270874,803.772339 354.943665,786.203918 
	C348.234802,764.078857 342.698944,741.538086 331.782745,720.899658 
	C331.176849,719.754211 330.945221,718.380188 330.693817,717.082642 
	C328.220154,704.316040 326.905243,691.430847 326.711029,678.424866 
	C326.521942,665.765015 326.868591,653.123291 327.671326,640.488831 
	C327.772552,638.895325 328.233551,637.032410 326.662781,635.823486 
	C323.292511,633.229614 314.173523,636.049561 312.927612,640.141235 
	C301.595551,677.357666 286.300659,712.962341 269.155548,747.810974 
	C267.960876,750.239197 267.805603,752.383118 268.714874,754.941650 
	C272.133087,764.559875 276.073029,773.876343 283.154846,782.363037 
M524.520447,978.891541 
	C525.427917,980.777039 527.271362,981.185242 529.023071,981.677856 
	C534.907898,983.332825 540.896179,983.427246 546.806763,982.129578 
	C558.096985,979.650879 567.015076,972.998047 575.207886,965.254456 
	C586.966492,954.140442 596.951599,941.393250 607.934387,929.564270 
	C609.766907,927.590515 609.702148,925.450134 609.425110,923.067139 
	C608.139343,912.008972 606.940796,900.940613 605.674683,889.880127 
	C604.658630,881.004944 603.590454,872.135620 602.563293,863.415588 
	C599.612183,862.594543 597.406555,863.591431 595.134644,863.825867 
	C575.704468,865.830688 557.086243,873.698853 537.198914,872.125488 
	C530.443970,871.591003 526.087158,873.824219 523.705322,880.152527 
	C522.487732,883.387573 520.231995,884.837891 516.628906,883.769531 
	C512.676208,882.597534 511.331635,884.295532 511.248505,888.304199 
	C510.612488,918.991150 514.201111,949.040833 524.520447,978.891541 
M471.172333,743.615723 
	C486.301392,737.090149 501.213348,730.032776 516.739319,724.476807 
	C520.740845,723.044800 521.914612,720.829224 521.787170,716.726807 
	C521.254639,699.585571 518.787842,682.620483 517.426575,665.557251 
	C516.501648,653.963501 514.957031,642.419434 514.005493,630.827271 
	C513.693298,627.024536 512.065491,625.886169 508.617676,626.310181 
	C507.465088,626.451965 506.289734,626.402039 505.125702,626.458313 
	C485.348511,627.414856 465.577087,628.539062 445.790375,629.214539 
	C440.963654,629.379395 439.138641,630.518250 439.069550,635.697021 
	C438.778412,657.529053 439.615173,679.294800 442.474823,700.930054 
	C444.499969,716.251709 447.484253,731.424438 451.233429,746.440002 
	C452.135590,750.053101 453.573944,751.136047 457.110748,749.478760 
	C461.476288,747.433350 466.001465,745.728760 471.172333,743.615723 
M245.651825,586.770325 
	C244.179428,574.889709 242.437866,563.069458 240.091797,551.306824 
	C238.273666,542.191040 232.899429,534.366516 231.858826,524.971558 
	C231.025742,517.450195 229.360550,509.955048 226.417480,502.675659 
	C224.045670,510.811249 221.070770,518.910889 220.490891,527.178528 
	C218.359955,557.560608 218.876236,588.066711 216.402069,618.466309 
	C215.161316,633.711365 215.748032,649.097900 215.234451,664.411255 
	C214.642899,682.049622 213.801437,699.680298 212.974548,717.309937 
	C211.608704,746.429993 211.149536,775.508789 213.911346,804.614319 
	C214.721054,813.147522 215.319046,813.573730 224.125992,814.234802 
	C229.850967,802.971313 235.346939,791.802734 241.208725,780.829529 
	C243.113815,777.263306 243.621429,773.754761 243.620468,769.842407 
	C243.617035,756.025330 243.418732,742.187378 244.085083,728.395569 
	C245.450806,700.128540 246.893112,671.865845 247.609070,643.574829 
	C248.081253,624.916809 247.350296,606.280762 245.651825,586.770325 
M604.944519,261.664673 
	C607.667969,260.531708 606.854431,258.037109 606.968994,256.030060 
	C608.241760,233.740036 607.361877,211.425873 607.712463,189.126083 
	C607.785095,184.509476 606.003784,182.677521 601.720886,181.734787 
	C588.236755,178.766571 574.685730,176.203857 561.004089,174.384171 
	C547.655640,172.608841 534.273071,171.123260 520.828857,170.225723 
	C516.807495,169.957245 515.232605,171.372482 515.259766,175.609802 
	C515.413086,199.583542 515.409058,223.559357 515.248108,247.533035 
	C515.222229,251.396301 516.502625,252.734604 520.277466,253.090271 
	C529.043396,253.916245 537.752625,255.328659 546.512573,256.236847 
	C565.690247,258.225098 584.803345,260.900085 604.944519,261.664673 
M167.001526,265.274628 
	C167.131012,262.462219 169.628967,262.559265 171.347900,261.972321 
	C175.100357,260.691040 178.952316,259.701233 182.763626,258.592316 
	C168.182022,258.184570 153.795380,259.016144 139.618423,263.439148 
	C139.978241,264.733490 140.059998,265.403412 140.338989,265.977478 
	C156.446274,299.119568 162.376434,334.873962 167.371490,370.883362 
	C169.290009,384.713959 169.739960,399.050354 173.860886,412.216736 
	C186.218964,451.700958 193.351913,492.518036 205.579330,531.998474 
	C206.826309,536.024719 207.700378,540.166504 208.747498,544.254639 
	C207.529587,527.207336 213.172440,511.322144 216.969604,495.292236 
	C220.532745,480.250183 219.235352,466.128082 214.363510,451.762238 
	C210.679733,440.899658 207.041626,429.887512 204.947006,418.650452 
	C201.537628,400.360199 199.406433,381.831757 196.734726,363.403992 
	C191.812012,329.450226 184.228058,296.302307 167.001526,265.274628 
M370.515656,448.705322 
	C378.011230,448.705719 385.506836,448.707275 393.002411,448.706268 
	C408.160126,448.704285 423.317841,448.698608 438.475555,448.700287 
	C441.059174,448.700562 443.440063,448.819702 443.696320,445.072357 
	C444.592377,431.969025 445.490936,418.858765 446.830048,405.796387 
	C447.347717,400.746643 446.510956,395.362610 448.941376,390.677856 
	C452.081299,384.625580 450.425537,378.333801 451.460205,371.994263 
	C444.704163,371.846008 438.991394,373.041199 433.240448,373.768402 
	C411.352142,376.536163 389.457062,377.415161 367.534943,374.190308 
	C359.776306,373.048981 360.068512,373.276245 359.206238,381.223083 
	C357.149231,400.180511 358.220001,419.311676 355.613220,438.233337 
	C354.437897,446.764618 356.455566,448.707550 365.026031,448.705475 
	C366.525146,448.705109 368.024261,448.704681 370.515656,448.705322 
M430.943787,758.410034 
	C433.640839,757.563354 436.300720,756.558777 439.044952,755.912231 
	C442.071991,755.199097 442.492126,753.622803 441.770996,750.803650 
	C432.071045,712.884033 427.886719,674.324707 428.737701,635.216675 
	C428.816895,631.577209 427.768860,630.086243 423.948303,630.322205 
	C411.329498,631.101624 398.699554,631.714722 386.068756,632.276001 
	C383.315155,632.398315 382.302185,633.510620 382.276337,636.243408 
	C382.052917,659.839600 379.817719,683.461365 383.312347,707.004578 
	C385.987671,725.028320 391.895264,741.437134 405.762512,754.214600 
	C411.802979,759.780396 418.006775,763.155212 426.278351,759.568115 
	C427.480713,759.046692 428.855255,758.922241 430.943787,758.410034 
M367.771973,294.119415 
	C365.498474,295.391235 365.539856,297.698914 365.373260,299.809387 
	C364.011658,317.059174 362.701111,334.313049 361.391052,351.566864 
	C360.854065,358.639008 361.106079,359.072327 368.220795,358.700836 
	C395.365997,357.283447 422.025879,352.098572 448.849487,348.174866 
	C452.823273,347.593628 453.444427,345.050232 453.657532,341.837769 
	C454.571289,328.063782 455.886627,314.331116 457.480835,300.615021 
	C458.123077,295.089386 459.608032,289.546112 458.796448,283.925476 
	C456.611237,282.980438 454.665039,283.440491 452.704224,283.761627 
	C440.881622,285.698059 429.117615,288.432892 417.215363,289.335052 
	C400.956390,290.567444 384.697052,291.603363 367.771973,294.119415 
M395.500092,490.387512 
	C385.172028,490.397064 374.843933,490.425659 364.515930,490.406006 
	C360.827606,490.398956 359.153076,491.575317 359.609680,495.806519 
	C360.501312,504.068512 360.768738,512.397522 361.312286,520.697632 
	C362.344727,536.462646 363.386047,552.226990 364.432098,567.991089 
	C364.661163,571.443848 365.859650,572.873169 369.847809,571.961609 
	C389.947388,567.367310 410.110077,563.047119 430.270660,558.724243 
	C433.484650,558.035095 434.460999,556.205933 434.706421,553.122253 
	C436.222992,534.069336 437.835327,515.023376 439.568665,495.988953 
	C439.937164,491.942383 438.827698,490.240692 434.479706,490.311310 
	C421.822784,490.516998 409.160370,490.386383 395.500092,490.387512 
M456.188293,553.570557 
	C476.100525,549.634827 496.186005,547.027588 516.440063,545.713074 
	C518.542969,545.576660 521.156250,546.226562 522.108459,543.646179 
	C524.684631,536.665405 527.989441,529.708740 527.544617,522.103394 
	C526.525818,504.683807 524.990051,487.295044 523.818237,469.883392 
	C523.606262,466.732727 522.037476,466.008698 519.339355,465.936340 
	C516.254089,465.853668 515.253784,467.365936 515.308716,470.232178 
	C515.401123,475.057404 515.086243,479.900848 515.388855,484.708527 
	C515.661621,489.040680 514.187683,490.533752 509.745605,490.477692 
	C492.770142,490.263306 475.790375,490.394135 458.812195,490.397491 
	C449.718323,490.399292 449.896454,490.412689 449.289581,499.346863 
	C448.535370,510.450226 447.152374,521.516602 446.611359,532.626709 
	C446.252838,539.988220 444.401520,547.343079 445.615021,554.753601 
	C449.232727,555.331177 452.222961,553.960022 456.188293,553.570557 
M650.705505,518.610474 
	C647.633667,492.362366 645.100037,466.055328 641.537598,439.859436 
	C637.975464,413.665375 634.923645,387.401947 631.634338,361.170654 
	C630.586060,352.811401 629.493835,344.457733 628.425659,336.132080 
	C625.289612,335.888947 623.074768,337.311951 620.646729,337.712250 
	C617.210327,338.278839 616.239563,340.265930 616.211548,343.666016 
	C615.900940,381.320526 616.545898,418.998810 621.657837,456.303375 
	C626.821350,493.983795 633.108398,531.547485 642.769409,568.430542 
	C646.301941,581.916870 649.637817,595.454712 653.063354,608.969055 
	C655.388672,592.831970 655.251282,576.694336 655.138672,560.664856 
	C655.042297,546.940186 652.309998,533.234070 650.705505,518.610474 
M239.707275,204.549301 
	C239.025482,189.762558 238.277435,174.978333 237.716400,160.186996 
	C237.600800,157.138901 236.437637,155.973236 233.485092,156.215775 
	C228.349854,156.637589 223.207901,156.978561 218.068054,157.343430 
	C208.924850,157.992493 209.344269,159.663986 211.085220,165.881363 
	C211.612732,167.765228 211.339859,169.858475 211.604904,171.832794 
	C214.808243,195.692688 218.156998,219.534027 221.158844,243.419022 
	C221.657013,247.382843 223.091812,248.898804 226.922562,249.209747 
	C233.375351,249.733505 239.788025,250.733765 246.233841,251.368240 
	C250.014511,251.740387 252.487320,254.888992 256.712158,255.018997 
	C267.155182,255.340347 277.561707,256.833496 287.984375,257.840546 
	C290.101685,258.045105 292.026306,258.672424 292.679993,260.900177 
	C294.184906,266.028809 297.796906,267.293640 302.650482,266.885834 
	C305.123535,266.678009 307.654510,266.813293 310.131012,267.068329 
	C314.572784,267.525665 316.235687,265.715485 315.569824,261.311890 
	C314.278778,252.773682 312.873810,244.238129 312.046417,235.650375 
	C311.619690,231.221268 309.561707,229.748444 305.510284,229.287598 
	C285.697083,227.033920 265.907410,224.573944 246.096817,222.296509 
	C242.419937,221.873825 240.323639,220.611237 240.428223,216.461624 
	C240.519913,212.822250 239.985321,209.167068 239.707275,204.549301 
M458.813477,448.704376 
	C472.139008,448.700531 485.468628,448.505432 498.787872,448.793213 
	C503.664215,448.898560 505.049438,447.233551 505.012726,442.500336 
	C504.822876,418.016174 504.929108,393.529724 504.901520,369.044128 
	C504.899689,367.422150 505.261200,365.696838 503.864807,363.867615 
	C491.980896,364.573822 480.143372,367.340912 468.124817,368.570435 
	C463.361816,369.057709 461.252991,371.491180 461.494293,375.944489 
	C462.135254,387.773804 458.048859,398.931335 456.832581,410.476685 
	C455.648132,421.719696 455.038849,433.022949 454.149292,444.297577 
	C453.930756,447.067505 454.660339,448.929047 458.813477,448.704376 
M383.513489,787.964172 
	C376.924805,779.608215 369.949066,771.548340 364.644806,762.232178 
	C363.184113,759.666626 360.577972,758.213440 357.445068,757.097290 
	C357.231995,760.320251 358.646667,762.694885 359.380371,765.177063 
	C364.987183,784.145508 370.113800,803.275513 379.189636,821.034119 
	C392.027100,846.153015 410.792114,861.179321 440.644073,858.832947 
	C449.735870,858.118347 459.063660,858.025330 468.066010,859.247986 
	C476.467896,860.389099 480.898743,857.226685 483.706543,850.061707 
	C483.826874,849.754517 484.032043,849.481506 484.185760,849.186401 
	C486.216705,845.286682 484.628235,842.650024 480.246948,842.959534 
	C463.582184,844.136292 448.313965,839.494080 433.852325,831.749878 
	C413.983215,821.109802 398.403992,805.453003 383.513489,787.964172 
M540.365967,773.812256 
	C525.158447,794.753235 519.404480,818.913879 515.890808,844.119141 
	C521.054077,844.984863 525.709290,844.509155 530.344055,844.520874 
	C532.440857,844.526184 533.588623,843.115906 534.557678,841.458923 
	C553.303406,809.407104 572.038086,777.348694 590.851990,745.336853 
	C592.477234,742.571533 592.735901,739.744324 592.598206,736.708801 
	C592.442993,733.287720 591.023682,731.937744 587.456726,732.798096 
	C579.024597,734.832031 570.842957,737.607056 562.699158,740.551270 
	C560.023499,741.518616 558.266724,743.106262 556.861816,745.575317 
	C551.591858,754.837097 546.132568,763.991150 540.365967,773.812256 
M299.717407,169.711288 
	C299.398193,165.193314 296.689911,162.737747 292.760834,160.909103 
	C279.464905,154.721039 265.366638,154.770844 251.194061,155.195450 
	C248.443207,155.277878 248.036743,157.144974 248.133850,159.342789 
	C248.867249,175.942230 249.620117,192.540833 250.324554,209.141510 
	C250.417068,211.322113 251.285156,212.447662 253.553391,212.711349 
	C270.375427,214.667023 287.194031,216.654236 304.002747,218.720764 
	C308.376923,219.258545 309.148346,217.207443 308.509949,213.463654 
	C306.053772,199.059479 303.313080,184.715378 299.717407,169.711288 
M200.268158,325.416595 
	C206.722687,354.350708 209.809906,383.824707 214.374603,413.062500 
	C215.842255,422.463043 218.847336,431.464294 222.660812,441.656281 
	C223.236923,439.394836 223.545395,438.622559 223.619614,437.828430 
	C225.391556,418.871796 225.043747,399.860321 224.409622,380.890259 
	C223.569931,355.770569 221.477310,330.715424 218.659653,305.731995 
	C217.317627,293.832703 215.878113,281.944458 214.527695,270.046082 
	C214.118515,266.440887 212.483566,264.676849 208.617966,265.279449 
	C204.675262,265.894073 200.640854,265.987122 196.735580,266.758789 
	C191.656189,267.762390 186.195297,267.535278 181.273087,270.760834 
	C189.886765,288.103638 195.732483,306.098389 200.268158,325.416595 
M449.364929,581.038635 
	C444.119690,581.168762 441.862518,583.508057 441.921417,589.084961 
	C441.987701,595.359802 440.760803,601.637451 440.441559,607.931396 
	C440.260864,611.493835 439.491211,615.151672 440.650848,618.792480 
	C441.501862,618.914307 442.147430,619.112610 442.781982,619.082092 
	C464.691681,618.027893 486.597900,616.895264 508.511688,615.936462 
	C512.080078,615.780334 513.020386,614.172180 512.971130,610.946472 
	C512.798401,599.634705 513.740601,588.372803 514.710876,577.113892 
	C514.960083,574.222168 516.561157,571.373901 514.946289,567.891296 
	C493.135925,570.964783 471.669250,575.984070 449.364929,581.038635 
M570.624695,551.820190 
	C577.283264,551.825684 583.943115,551.756409 590.599792,551.871338 
	C593.498352,551.921265 594.846252,550.878784 594.946960,547.862793 
	C595.807007,522.093933 596.705994,496.326202 597.700562,470.562286 
	C597.840088,466.948517 596.206909,465.908813 592.950317,465.942078 
	C585.959534,466.013519 578.961548,466.089813 571.977417,465.847809 
	C567.788940,465.702698 566.050842,467.099426 565.945251,471.493835 
	C565.481873,490.784027 564.812317,510.070190 564.075989,529.352417 
	C563.798340,536.625183 563.741882,543.930420 562.312439,551.193542 
	C564.726379,552.463989 567.248413,551.673401 570.624695,551.820190 
M539.114319,327.271423 
	C542.732483,327.775177 546.348877,328.291870 549.969482,328.777069 
	C551.676025,329.005768 553.332214,328.886841 554.569336,327.486053 
	C562.440063,318.574341 569.615784,309.260742 572.328125,297.298706 
	C572.873840,294.891968 572.497009,293.124573 570.166260,291.867798 
	C554.338928,283.334045 538.127075,276.341309 519.479736,278.067078 
	C516.614563,278.332214 515.292114,279.197174 515.303040,282.230743 
	C515.374390,302.026642 515.366455,321.822998 515.317749,341.619019 
	C515.311340,344.236511 516.330383,345.368347 518.936401,345.977386 
	C526.836731,347.823578 527.996399,347.136627 528.573059,339.276703 
	C528.670410,337.951019 528.658264,336.617096 528.688354,335.286743 
	C528.898560,325.996948 528.897888,325.996918 539.114319,327.271423 
M291.331879,418.208221 
	C291.999268,420.783112 292.549255,423.395325 293.354431,425.926361 
	C296.779633,436.693634 302.970673,444.883301 314.379547,448.100952 
	C322.189423,450.303558 323.686554,448.982574 323.999969,441.047699 
	C324.464447,429.288177 321.142029,417.970795 320.456024,406.328613 
	C319.753052,394.397827 319.348755,382.390656 316.922516,370.584869 
	C316.221741,367.175049 314.976685,365.145630 311.426056,364.660675 
	C308.918488,364.318207 306.362823,363.508087 304.799072,361.476990 
	C300.538727,355.943481 294.385559,353.942352 288.143494,352.048309 
	C283.958740,350.778503 282.792297,351.807617 283.792908,356.023407 
	C285.602509,363.647430 286.697662,371.345856 287.439301,379.156464 
	C288.648834,391.895477 288.680573,404.758972 291.331879,418.208221 
M504.922760,304.500000 
	C504.925354,297.178894 504.888641,289.857483 504.950256,282.536865 
	C504.974304,279.680573 503.995850,278.097687 500.861389,278.416626 
	C492.098175,279.308289 483.340820,280.300079 474.558289,280.937958 
	C471.081451,281.190491 470.060791,283.057037 469.680115,285.970856 
	C467.291168,304.256958 465.253632,322.576263 464.085266,340.988647 
	C463.846008,344.759186 465.277283,346.159973 468.977173,345.762848 
	C479.076691,344.678833 489.222656,344.306549 499.360474,344.743164 
	C503.882935,344.937897 505.079681,343.177551 504.997223,338.942963 
	C504.780121,327.799042 504.922394,316.648132 504.922760,304.500000 
M431.222382,818.232910 
	C443.592529,825.943848 456.419067,832.248657 471.376007,831.938110 
	C472.328949,829.580139 471.497406,828.080750 470.732452,826.626221 
	C463.434448,812.748962 457.158386,798.419250 451.881866,783.662231 
	C450.912598,780.951416 449.317352,779.903320 446.646942,780.288086 
	C436.260437,781.784851 427.003296,778.005249 417.737732,774.199646 
	C416.211792,773.572815 414.542297,772.539185 413.052002,772.705322 
	C403.681396,773.750427 394.335968,775.352356 384.827209,771.766174 
	C397.668671,789.805054 412.259827,805.687561 431.222382,818.232910 
M502.649994,805.147705 
	C511.281464,791.236145 517.357361,776.434326 519.290344,759.371704 
	C517.258911,760.003296 516.130432,760.255188 515.080933,760.695374 
	C498.800842,767.523193 482.389771,773.961426 464.995209,777.444458 
	C461.385406,778.167297 461.596008,780.277100 462.591278,782.994263 
	C467.578888,796.611328 473.436462,809.835632 480.366699,822.575684 
	C482.839996,827.122375 483.935150,827.282471 487.695984,823.479614 
	C493.090210,818.024963 497.989746,812.144897 502.649994,805.147705 
M358.684509,710.581299 
	C357.253601,685.226257 356.643250,659.844727 357.092499,634.287903 
	C352.414642,634.287903 348.594177,634.429382 344.789307,634.246460 
	C341.259735,634.076721 340.236694,635.648987 340.181580,638.999451 
	C339.894318,656.472168 338.621704,673.949768 340.348175,691.408325 
	C341.814911,706.240662 344.665955,720.716980 352.506409,733.723145 
	C354.785004,737.502991 357.125000,741.281921 361.628662,744.372803 
	C360.604034,732.887390 359.651550,722.210510 358.684509,710.581299 
M297.897217,815.601990 
	C283.656219,800.279602 269.631561,784.797424 260.985840,764.439575 
	C258.294586,770.603760 253.779526,775.174133 253.886078,781.155212 
	C254.090225,792.615173 254.826202,804.076294 256.214020,815.484863 
	C256.553497,818.275574 257.532074,819.693481 260.232452,820.232727 
	C278.285919,823.838379 296.328644,827.497437 315.221954,831.310181 
	C308.945892,826.170898 303.479462,821.342651 297.897217,815.601990 
M387.706055,621.774109 
	C400.150665,621.149841 412.594208,620.502136 425.040802,619.920410 
	C427.632080,619.799377 429.487488,619.295715 429.681610,616.087280 
	C430.212646,607.309692 430.927277,598.542419 431.646149,589.777283 
	C431.931732,586.295288 431.007172,584.995789 427.129822,585.801636 
	C412.662415,588.808167 398.145081,591.584106 383.610138,594.248230 
	C380.622925,594.795776 379.799805,595.944702 380.183624,598.895508 
	C381.018127,605.311157 381.646729,611.761230 382.100861,618.215393 
	C382.331146,621.487854 384.169159,621.994873 387.706055,621.774109 
M538.438293,521.817261 
	C541.236206,523.542175 541.328064,525.515686 539.816711,528.432678 
	C537.257751,533.371765 534.785400,538.425171 533.228821,544.502197 
	C538.462585,544.873291 543.058167,545.059570 547.617920,545.567261 
	C551.153198,545.960938 552.703308,544.835754 553.104736,541.112000 
	C554.125488,531.644226 553.503052,522.150024 553.986328,512.676758 
	C554.697815,498.726929 555.042603,484.758759 555.680420,470.804657 
	C555.836914,467.381561 554.593262,465.870148 551.152588,465.965942 
	C547.826721,466.058563 544.495178,465.938385 541.166138,465.929443 
	C534.261047,465.910889 533.891357,466.366150 534.396423,473.388458 
	C535.088013,483.003296 535.651062,492.627686 536.382019,502.239380 
	C536.860291,508.528107 537.538391,514.801636 538.438293,521.817261 
M236.323120,339.054169 
	C238.399185,318.355804 242.605865,298.263641 253.139725,279.973022 
	C253.907761,278.639465 254.544022,277.410828 253.359131,275.868744 
	C247.951782,268.831451 242.710541,261.581055 232.016098,264.294708 
	C231.389755,264.453644 230.687927,264.309418 230.021332,264.316254 
	C224.132507,264.376526 224.031525,264.792969 224.769531,270.731903 
	C226.758316,286.736084 228.669571,302.753723 230.295212,318.798096 
	C231.966888,335.297119 233.264648,351.834045 234.726028,368.354370 
	C234.404724,358.852417 235.472626,349.411224 236.323120,339.054169 
M585.144165,287.087097 
	C584.398315,286.883972 583.652466,286.680817 583.003967,286.504211 
	C584.675842,303.775299 576.440125,317.199036 566.048523,330.274475 
	C575.835083,332.565277 584.504150,331.556824 593.104675,331.647949 
	C599.260437,331.713196 605.397644,326.214050 605.829773,320.163635 
	C606.303223,313.533905 606.291260,306.870483 606.703186,300.234924 
	C606.911194,296.883026 605.467285,294.979248 602.550842,293.675964 
	C597.078796,291.230591 591.543884,288.973053 585.144165,287.087097 
M381.500031,465.942657 
	C375.338562,465.937958 369.177063,465.915375 363.015717,465.941559 
	C361.537842,465.947845 359.508362,465.644226 358.917755,467.121460 
	C357.462189,470.762238 357.855896,474.731323 358.817719,478.356110 
	C359.504150,480.943054 362.501709,480.042999 364.535950,480.047455 
	C387.183411,480.096802 409.831055,480.063232 432.478668,480.054565 
	C440.107758,480.051666 440.107758,480.054901 441.243561,472.504913 
	C442.147430,466.496521 441.730011,465.963287 435.455505,465.951874 
	C417.803711,465.919708 400.151855,465.941315 381.500031,465.942657 
M540.863525,653.447388 
	C540.109924,644.556152 537.628418,636.180115 533.570374,628.229370 
	C532.032776,625.216797 529.549133,625.041809 526.802917,625.505249 
	C523.680115,626.032349 524.232178,628.624146 524.346558,630.663391 
	C524.653259,636.132446 525.072937,641.599609 525.624268,647.049744 
	C527.661804,667.192017 530.299194,687.275513 531.384888,707.510681 
	C531.576416,711.080078 531.718567,714.709595 532.947815,718.096008 
	C540.593750,717.373413 540.675049,717.237061 540.823730,710.118835 
	C540.913940,705.802307 541.254272,701.491150 541.350952,697.174622 
	C541.670837,682.891907 542.599548,668.601929 540.863525,653.447388 
M323.401123,244.157059 
	C324.326141,250.717819 325.322479,257.269745 326.136230,263.844269 
	C326.408936,266.047821 326.833832,267.597382 329.501953,267.825165 
	C337.614014,268.517792 345.733612,268.809906 353.871246,268.778015 
	C356.260803,268.768646 357.541748,267.829956 357.678894,265.278412 
	C357.910126,260.976685 358.516052,256.690948 358.646729,252.388794 
	C359.002106,240.691589 358.971283,240.553177 347.696228,237.646179 
	C339.595276,235.557541 331.515472,233.188797 322.912018,232.559509 
	C321.891083,236.476273 323.727234,239.833908 323.401123,244.157059 
M515.334961,423.499939 
	C515.336426,430.482208 515.338135,437.464508 515.339050,444.446777 
	C515.339355,446.579193 515.578064,448.437653 518.381348,448.652863 
	C520.951843,448.850189 522.555176,448.063599 522.922302,445.324310 
	C523.053162,444.348328 523.458557,443.410095 523.726807,442.451324 
	C530.332825,418.846283 528.945190,394.720917 528.270447,370.659546 
	C528.193909,367.932281 528.546936,365.012909 527.332336,362.509888 
	C525.912964,361.622681 524.561340,362.039764 523.264099,362.075989 
	C515.339233,362.297363 515.333008,362.310577 515.331848,370.132599 
	C515.329163,387.588379 515.333801,405.044128 515.334961,423.499939 
M249.822800,528.362183 
	C247.768539,512.220398 245.731155,496.076385 243.655731,479.937286 
	C241.057739,459.734528 238.428497,439.535828 235.812729,419.335358 
	C234.428284,432.144928 233.208252,444.882568 232.493881,457.648499 
	C232.098175,464.720123 230.178207,471.685394 232.062225,478.952942 
	C237.955338,501.685822 241.970627,524.895630 249.592392,547.197083 
	C250.950150,551.169861 251.456375,555.433655 252.355789,559.563110 
	C251.072632,549.468079 252.213440,539.205444 249.822800,528.362183 
M377.723480,729.551880 
	C370.830627,707.777100 370.731812,685.352051 371.307892,662.856384 
	C371.529419,654.206726 371.660065,645.554565 371.782959,636.902832 
	C371.803772,635.434692 371.914032,633.631775 369.796570,633.496582 
	C367.316956,633.338257 367.418762,635.267639 367.369171,636.955872 
	C367.349640,637.621094 367.373138,638.287476 367.369781,638.953308 
	C367.204071,671.897217 367.817596,704.799744 371.295593,737.610291 
	C373.144623,755.053467 375.354950,758.061157 392.629791,762.637451 
	C394.231934,763.061890 396.022919,764.442444 398.165894,762.225159 
	C394.031494,757.605713 389.646515,753.131042 386.269592,747.856079 
	C382.745758,742.351501 380.023956,736.493286 377.723480,729.551880 
M627.458557,687.157288 
	C627.313354,689.816406 627.384033,692.428284 627.865479,695.092163 
	C630.987305,712.365784 637.672607,728.895935 638.435730,746.677124 
	C642.892090,726.611023 646.008362,706.436279 646.754639,685.962463 
	C647.137512,675.459595 643.993408,673.646667 634.120300,678.073730 
	C630.418396,679.733704 628.501831,682.585571 627.458557,687.157288 
M486.408264,760.779907 
	C496.157623,757.409363 505.701691,753.518311 515.130981,749.348083 
	C521.937988,746.337585 523.527039,741.939453 520.489563,734.476135 
	C518.496033,734.391235 516.732239,735.359436 514.926819,736.123352 
	C496.403015,743.960510 477.881165,751.802307 459.365753,759.659302 
	C457.418060,760.485840 455.207672,760.957825 456.139313,764.161560 
	C457.021912,767.196716 458.686035,768.175659 461.643860,767.605164 
	C469.819672,766.028381 477.786285,763.699524 486.408264,760.779907 
M342.819000,333.676178 
	C344.496887,322.345856 346.057617,310.996704 348.546967,299.802216 
	C349.264954,296.573425 347.927490,295.178162 344.571320,295.361511 
	C341.419403,295.533661 338.249603,295.375275 335.087646,295.366547 
	C329.394135,295.350830 328.773590,295.962402 329.492340,301.743073 
	C331.176422,315.286926 331.316040,328.932434 332.239624,342.525482 
	C332.685394,349.086273 333.257660,349.940613 341.178436,350.703247 
	C341.698639,345.349976 342.221954,339.964630 342.819000,333.676178 
M504.661377,477.943085 
	C504.749268,476.118500 504.706940,474.276367 504.949982,472.472687 
	C505.629425,467.429932 503.496368,465.774445 498.487061,465.864655 
	C484.686432,466.113281 470.877899,465.884003 457.072937,465.948517 
	C452.297821,465.970825 451.513855,467.771362 451.241211,475.250702 
	C451.080444,479.661713 453.367645,480.098999 456.781067,480.079224 
	C470.918640,479.997345 485.056885,480.040070 499.194733,479.991516 
	C500.971588,479.985413 502.910309,480.370880 504.661377,477.943085 
M352.734894,547.452515 
	C351.615967,529.912048 350.497040,512.371521 349.378113,494.831055 
	C347.314514,505.252380 345.712006,515.592041 344.711548,525.989624 
	C343.376038,539.869263 340.383057,553.581421 340.302612,567.575684 
	C340.245667,577.476624 340.381439,577.312561 350.106689,575.828003 
	C353.741150,575.273193 354.887512,573.838013 354.513519,570.255249 
	C353.754852,562.987915 353.326691,555.686096 352.734894,547.452515 
M355.548126,587.516663 
	C355.161865,585.833984 354.038818,585.544922 352.522888,585.839294 
	C350.078125,586.314148 347.626740,587.049438 345.168121,587.091736 
	C341.107727,587.161560 340.198608,589.248535 340.280273,592.840698 
	C340.431396,599.486267 340.189728,606.139709 340.256073,612.788452 
	C340.366333,623.840759 340.414398,623.840271 351.375458,623.691895 
	C357.512299,623.608765 357.949463,623.294983 357.602112,617.144043 
	C357.059265,607.531921 356.297241,597.932190 355.548126,587.516663 
M333.330536,375.628754 
	C333.584106,381.270813 333.977142,386.910736 334.062012,392.555328 
	C334.234436,404.023560 334.201202,415.494751 334.328857,426.963867 
	C334.410858,434.327240 338.982971,443.321686 343.643860,445.325684 
	C343.643860,443.779236 343.802734,442.278046 343.620117,440.819611 
	C340.810211,418.377472 339.391663,395.860657 339.926300,373.238251 
	C340.035126,368.634583 337.251251,368.735168 333.932495,369.241364 
	C333.041351,371.109161 333.399689,372.956940 333.330536,375.628754 
M426.351959,570.149841 
	C407.179077,574.271729 388.009399,578.408569 368.829926,582.499634 
	C365.923859,583.119446 365.418091,584.634155 365.694061,587.533081 
	C366.669708,597.780334 367.236603,608.066223 367.979370,618.335999 
	C368.087860,619.836121 366.938293,622.149780 369.439575,622.398132 
	C372.387726,622.690918 371.731689,620.074280 371.677704,618.434753 
	C371.381775,609.448853 370.587830,600.512268 368.100769,591.820923 
	C367.017975,588.037109 367.686279,586.200928 372.234039,585.583191 
	C391.184784,583.008850 409.927094,579.218079 428.575165,574.970276 
	C430.773621,574.469543 433.330902,574.138916 432.550262,571.137817 
	C431.693970,567.845947 429.102783,569.772522 426.351959,570.149841 
M628.862427,189.582214 
	C625.495728,188.860764 622.457397,186.785324 618.415222,187.035217 
	C618.415222,204.723984 618.415222,222.300262 618.415222,239.876541 
	C623.682922,225.032425 628.142944,210.057205 632.818787,195.149689 
	C633.893555,191.723068 632.298401,190.599274 628.862427,189.582214 
M563.905151,164.511276 
	C578.177612,166.042984 592.134766,169.542831 606.272339,172.032776 
	C607.657898,161.716568 607.554810,161.658707 598.302002,160.096680 
	C589.863647,158.672150 581.394470,159.092331 572.951965,159.649902 
	C565.671997,160.130692 558.427246,161.145309 551.166931,161.923920 
	C551.197266,162.109573 551.227600,162.295242 551.257935,162.480896 
	C555.188538,163.094055 559.119141,163.707199 563.905151,164.511276 
M583.823975,342.281372 
	C577.035767,341.898315 570.238831,341.628357 563.461853,341.100922 
	C556.428162,340.553528 551.849121,343.473206 549.169250,350.703766 
	C549.728455,350.975342 550.285034,351.445099 550.883362,351.506073 
	C558.974548,352.331268 567.016296,353.443878 574.927917,355.377930 
	C576.105286,355.665710 577.388428,355.764252 578.189697,354.777557 
	C581.364563,350.867706 585.341858,347.571289 587.945923,342.611633 
	C586.510925,342.473999 585.559143,342.382690 583.823975,342.281372 
M579.440674,270.266449 
	C560.470154,268.184662 541.499634,266.102875 522.529114,264.021118 
	C550.434937,270.076447 579.487427,270.960571 605.605286,283.901672 
	C607.177551,280.918457 606.588989,278.717499 606.760315,276.603119 
	C606.997498,273.676819 605.647400,272.481506 602.704102,272.276123 
	C595.244446,271.755676 587.802612,270.979736 579.440674,270.266449 
M453.986877,569.385071 
	C473.603607,564.812744 493.366333,560.923767 513.109558,556.860840 
	C510.775055,556.721069 508.506500,557.028381 506.227692,557.167603 
	C486.640686,558.364685 467.387573,561.900635 448.137085,565.445679 
	C445.215485,565.983704 442.508728,566.880432 444.039001,571.432678 
	C447.120758,570.806824 450.150421,570.191589 453.986877,569.385071 
M334.313141,462.962769 
	C334.307831,465.934937 334.410522,468.912170 334.270447,471.877991 
	C334.087128,475.760925 335.909515,477.572235 339.897522,477.924591 
	C341.199036,473.080017 341.662262,468.367859 341.890808,463.622559 
	C341.980011,461.770569 342.089111,459.706238 339.600128,459.421143 
	C337.396973,459.168823 334.724579,458.530670 334.313141,462.962769 
M240.079681,805.498169 
	C239.536819,806.521545 238.932526,807.517639 238.463669,808.573853 
	C237.424881,810.914124 235.108566,813.258179 237.085327,815.893555 
	C239.048477,818.510803 242.190796,818.253479 245.644760,818.218750 
	C246.265564,811.647278 244.279663,805.568848 243.511124,799.258789 
	C242.469742,801.117126 241.428345,802.975525 240.079681,805.498169 
M544.949585,854.987488 
	C537.953186,854.827576 537.953186,854.827576 537.311523,859.855835 
	C547.399841,858.799377 557.578552,859.676208 567.294434,856.802185 
	C567.247131,856.198181 567.199890,855.594177 567.152649,854.990173 
	C560.052429,854.990173 552.952148,854.990173 544.949585,854.987488 
M453.202545,272.323334 
	C437.734741,273.652405 422.265381,274.969879 406.068268,278.338165 
	C413.443970,280.232025 419.614197,278.741821 425.811951,277.675964 
	C435.299164,276.044495 444.793854,274.456665 454.278290,272.809540 
	C454.740692,272.729218 454.697144,272.373779 454.245636,272.329437 
	C454.080688,272.313202 453.913452,272.320343 453.202545,272.323334 
M532.296448,737.060425 
	C532.465515,738.310547 531.821716,739.734924 533.048157,740.758057 
	C538.633850,739.593872 542.311584,733.461243 540.771729,727.936462 
	C532.565674,728.909973 532.380127,729.092102 532.296448,737.060425 
M421.549866,362.961945 
	C420.086182,363.558289 418.239319,362.793488 416.352875,364.812592 
	C428.410858,363.766663 439.806396,363.289551 450.823486,359.754150 
	C441.134399,358.912170 431.801392,361.515289 421.549866,362.961945 
M611.873779,828.380432 
	C608.516846,833.238159 605.159973,838.095825 601.693298,843.112427 
	C604.103027,844.306580 606.329468,845.638855 607.700439,842.977173 
	C610.856812,836.849487 613.404114,830.444885 614.840149,823.608765 
	C613.973572,825.003357 613.106995,826.397949 611.873779,828.380432 
M499.754791,854.804688 
	C493.111176,853.024170 492.635986,853.275330 491.929657,858.940247 
	C494.199890,859.549011 499.344330,859.904724 500.628082,859.714783 
	C502.190521,859.483643 502.993744,858.602295 503.125488,857.120239 
	C503.300293,855.154541 501.692505,855.253357 499.754791,854.804688 
M522.579895,859.667053 
	C524.238647,858.985413 525.253662,857.896973 525.005554,855.984741 
	C517.817932,853.680908 514.593445,854.627258 514.130371,859.221436 
	C516.596191,860.441223 519.227783,859.801819 522.579895,859.667053 
M439.958008,766.444702 
	C438.222595,767.127075 436.487183,767.809448 434.442444,768.613464 
	C438.734253,771.376099 442.508453,770.372986 446.385986,768.972046 
	C445.966736,764.129456 443.113922,765.695496 439.958008,766.444702 
M502.258545,844.261047 
	C504.096039,844.735596 505.282379,843.831909 505.427460,842.160339 
	C505.676605,839.289368 507.008484,836.521484 506.209534,832.458191 
	C504.270142,836.827698 499.880157,839.045105 502.258545,844.261047 
M490.829224,260.295990 
	C485.830750,259.953888 480.835083,258.336456 475.831085,260.128235 
	C480.992798,260.726532 486.153168,261.321289 490.829224,260.295990 
M464.367218,357.494751 
	C469.308044,359.733459 473.475067,356.021851 478.062653,355.495514 
	C473.645386,356.033081 469.228149,356.570618 464.367218,357.494751 
M256.014740,748.056580 
	C255.530563,746.481079 255.046402,744.905640 254.317032,742.532227 
	C254.317032,746.645691 254.317032,749.838684 254.317032,754.020569 
	C255.669296,751.768311 256.773132,750.543274 256.014740,748.056580 
z" data-index="0"></path>
</svg>